# xmcd CD database file
#
# Track frame offsets:
#	150
#	14210
#	28227
#	41980
#	53712
#	67335
#	79830
#	94437
#	106722
#	118958
#	131926
#	144983
#	159602
#	171932
#	183535
#	198898
#	212127
#	225593
#	239959
#	255894
#	267451
#	281714
#	295097
#
# Disc length: 4110 seconds
#
# Revision: 1
# Processed by: cddbd v1.5.1PL0 Copyright (c) Steve Scherf et al.
# Submitted via: CDex 1.51
#
DISCID=71100c17
DTITLE=Ulf Linde - Jazz 1948-52  Vol 1
DYEAR=2004
DGENRE=Jazz
TTITLE0=I´ve Got My Love To Keep Me Warm
TTITLE1=Night And Day
TTITLE2=I Surrender Dear
TTITLE3=Love Walked In
TTITLE4=Don´t Be That Way
TTITLE5=All The Things You Are
TTITLE6=Larry´s Blues
TTITLE7=Dinah
TTITLE8=Once in A While
TTITLE9=Sweet and Lovely
TTITLE10=My Blue Heaven
TTITLE11=On the Alamo
TTITLE12=Always
TTITLE13=Blue Skies
TTITLE14=9:20 Special
TTITLE15=Dearly Beloved
TTITLE16=That Old Feeling
TTITLE17=Nevertheless
TTITLE18=I Guess I´ll have to Dream the Rest
TTITLE19=Three without A Key Part 1
TTITLE20=Three without A Key Part 2
TTITLE21=Three without A Ket Part 3
TTITLE22=Jack Pot
EXTD=YEAR: 2004
EXTT0=
EXTT1=
EXTT2=
EXTT3=
EXTT4=
EXTT5=
EXTT6=
EXTT7=
EXTT8=
EXTT9=
EXTT10=
EXTT11=
EXTT12=
EXTT13=
EXTT14=
EXTT15=
EXTT16=
EXTT17=
EXTT18=
EXTT19=
EXTT20=
EXTT21=
EXTT22=
PLAYORDER=
